<?xml version="1.0" encoding="utf-8"?>
<!-- Generator: Adobe Illustrator 17.1.0, SVG Export Plug-In . SVG Version: 6.00 Build 0)  -->
<!DOCTYPE svg PUBLIC "-//W3C//DTD SVG 1.1//EN" "http://www.w3.org/Graphics/SVG/1.1/DTD/svg11.dtd">
<svg version="1.1" id="Calque_1" xmlns="http://www.w3.org/2000/svg" xmlns:xlink="http://www.w3.org/1999/xlink" x="0px" y="0px"
	 height="30px" fill="#333333" viewBox="0 0 1112.6 1112.6" enable-background="new 0 0 1112.6 1112.6" xml:space="preserve">
<path d="M556.3,0C249.1,0,0,249.1,0,556.3s249.1,556.3,556.3,556.3s556.3-249.1,556.3-556.3S863.5,0,556.3,0z M194.3,825.3l87-479
	l63,12l-71,393l378,157L194.3,825.3z M335.3,721.3l85-476l72,29l-72,403l264,190L335.3,721.3z M477.3,645.3l86-475l66,48l-75,414
	l194.5,209L477.3,645.3z M834,855.3l-221-234l84-468l219,257L834,855.3z"/>
</svg>
